/* XPM */
static char *pQHbLte1739448704198[] = {
/* columns rows colors chars-per-pixel */
"32 32 20 1 ",
"  c #828893",
". c #9299A3",
"X c #939AA4",
"o c #949BA5",
"O c #959CA6",
"+ c #979EA8",
"@ c #989FA9",
"# c #9AA1AB",
"$ c #9BA2AC",
"% c #9CA3AD",
"& c #9DA4AE",
"* c #9FA6B0",
"= c #A0A7B1",
"- c #A2A9B3",
"; c #A3AAB4",
": c #A4ABB5",
"> c #A5ACB6",
", c #A7AEB8",
"< c #A8AFB9",
"1 c #AAB1BB",
/* pixels */
"%%*&--& #&*--- *&-:&$#-> *$-:>=;",
">--&;: &&--;&*% &*%&:,>-- =-*&#%",
"O@%*& >>>>-%#$&- -*;>1>:-& O@@%%",
"#@$& #%&&OO+*&=;1 :&%#&$%%*    :",
",    $$O$+##&#+oO# $$%$#O#& %%* ",
" =*#$ &&=>:*#&**&-> :&+&;-& &+%&",
"#$@-&* -*-&=*>>11>>    -:;- -;&%",
"*---->;   ;::%*%&& =**- &*# -1:*",
";--#%$&-;>   &$++ +###$# * ***;&",
"&%**-#$$&# #- -  :$%$-=&& 1>>%=;",
"->=>->:-* &&*: ;=*=*-*:>> ;>--=-",
"&#   --= *1<-&* &#%#&&--& #@+##+",
"* &*: - -*%%--;> :->>*@+ & &*==-",
" >-==& %--&#%--&&     & >-- ;;  ",
"&##+$& #%&;=@+#% :-*&> <>=- & &=",
"-$=-;= -=&$&$#@ =>-;;>>-%% $ ;-*",
"->11:= &#*=;*## :*%#&-%%# =>--&%",
";-%@=>  #%&-;= # @$#&##@ &&*--;=",
"&=&=* :>      ,%O --&%= =%%#*$&=",
"#&:> &&==&-&= 1< -     ;;>:*$o&-",
"*%# ##$#=;>*#@  $$#&:: $%=::=-&%",
"%% %#+O##&#&&; #+%;:>& $&%#*-<%@",
"  >:**=-&$&*--   *-;== -*%#&$%& ",
"> >-;>>>,><-*@ *= $$&*: =-<;%. &",
"&# $&&%*--##& *$&* @#%&%      ;%",
"%%* &%##$    1:-;>; %=@#O X$*:*;",
">;-- =*& %-*&+&,<::; @#-= $-&%&-",
"-=%$- &*= +@$#-><>--& =: 1<-==:;",
"%$=*& *-;>   <:*$#%==-  &*:==:;;",
"#&$&# *=&-=%$ &@@#*;:-: :%&%;-*&",
"=&@@&> ##$=&;& --:&$%%& &%$-:=&#",
"&$>:1*; ;#&:,1= @&&$&-* O*=:->*#"
};
