/* XPM */
static char *OlXcKhh1739448525175[] = {
/* columns rows colors chars-per-pixel */
"32 32 210 2 ",
"   c #1F1F11",
".  c #1E2517",
"X  c #232C10",
"o  c #2B2B15",
"O  c #23241B",
"+  c #242A1C",
"@  c #302C17",
"#  c #2A321C",
"$  c #2E3A1B",
"%  c #363A16",
"&  c #323C15",
"*  c #32331C",
"=  c #3A361C",
"-  c #333C1B",
";  c #3B3C1D",
":  c #272423",
">  c #292626",
",  c #252A22",
"<  c #2D2E23",
"1  c #282728",
"2  c #2F2F28",
"3  c #302F29",
"4  c #2C3323",
"5  c #333524",
"6  c #333B24",
"7  c #3A3D23",
"8  c #35342B",
"9  c #39362F",
"0  c #343A2A",
"q  c #3B3C2B",
"w  c #3D3B33",
"e  c #3E3D38",
"r  c #41391B",
"t  c #433F26",
"y  c #423E34",
"u  c #433E3A",
"i  c #374317",
"p  c #3E4216",
"a  c #3B431B",
"s  c #3B491D",
"d  c #354121",
"f  c #3C4324",
"g  c #3C4923",
"h  c #3C432B",
"j  c #3E4928",
"k  c #3E4331",
"l  c #484716",
"z  c #41431D",
"x  c #434C1C",
"c  c #4C4E1D",
"v  c #475218",
"b  c #4C521A",
"n  c #575817",
"m  c #51581F",
"M  c #424424",
"N  c #434A25",
"B  c #4C4D23",
"V  c #42442E",
"C  c #49462C",
"Z  c #444C2B",
"A  c #4C4B2C",
"S  c #534B20",
"D  c #445125",
"F  c #4B5326",
"G  c #495827",
"H  c #45522C",
"J  c #4B542B",
"K  c #4C5A2C",
"L  c #515325",
"P  c #51532C",
"I  c #59562F",
"U  c #525A2D",
"Y  c #444333",
"T  c #484534",
"R  c #444A32",
"E  c #4A4B34",
"W  c #45423A",
"Q  c #4A453B",
"!  c #4C4C3B",
"~  c #514A30",
"^  c #514F3B",
"/  c #455232",
"(  c #4C5332",
")  c #4F5934",
"_  c #4D543A",
"`  c #525333",
"'  c #535B34",
"]  c #5B5C33",
"[  c #53533C",
"{  c #58553F",
"}  c #545B3A",
"|  c #5B5D3A",
" . c #695C2D",
".. c #4E612A",
"X. c #516021",
"o. c #586020",
"O. c #55612B",
"+. c #59632E",
"@. c #5C682C",
"#. c #556333",
"$. c #5B6335",
"%. c #5E6C36",
"&. c #57603A",
"*. c #5A633D",
"=. c #5E6838",
"-. c #636427",
";. c #616434",
":. c #636A36",
">. c #676A3A",
",. c #607137",
"<. c #6A763D",
"1. c #6C7A3A",
"2. c #707234",
"3. c #4C4641",
"4. c #4D4A41",
"5. c #534D43",
"6. c #584F46",
"7. c #524E48",
"8. c #535344",
"9. c #595645",
"0. c #555B42",
"q. c #5C5C43",
"w. c #57544D",
"e. c #5A544B",
"r. c #5D5B4D",
"t. c #5D5B50",
"y. c #605C45",
"u. c #625F4C",
"i. c #635D52",
"p. c #6A5E52",
"a. c #5C6343",
"s. c #5B6543",
"d. c #5D624B",
"f. c #5F6250",
"g. c #636545",
"h. c #646A45",
"j. c #6B6B43",
"k. c #62644B",
"l. c #68654C",
"z. c #65694B",
"x. c #6A6B4B",
"c. c #716445",
"v. c #697643",
"b. c #6F7B45",
"n. c #6B714C",
"m. c #727344",
"M. c #747D44",
"N. c #71764B",
"B. c #727B4D",
"V. c #787F4A",
"C. c #646252",
"Z. c #6B6454",
"A. c #656B53",
"S. c #6B6A52",
"D. c #676159",
"F. c #6C655A",
"G. c #6D6C5A",
"H. c #716D56",
"J. c #71675B",
"K. c #736A5B",
"L. c #786F5F",
"P. c #6D7251",
"I. c #727454",
"U. c #747854",
"Y. c #75745D",
"T. c #79755F",
"R. c #77795A",
"E. c #7A7A5E",
"W. c #6C6961",
"Q. c #756D63",
"!. c #7B6E67",
"~. c #767263",
"^. c #7A7265",
"/. c #7B7B63",
"(. c #7D756B",
"). c #7F786B",
"_. c #847F55",
"`. c #807F66",
"'. c #81756A",
"]. c #867868",
"[. c #837C6C",
"{. c #867D71",
"}. c #897F72",
"|. c #7E803D",
" X c #7A804E",
".X c #7A8848",
"XX c #7E816B",
"oX c #84875A",
"OX c #818961",
"+X c #82816A",
"@X c #89836D",
"#X c #9A9A6D",
"$X c #8C8675",
"%X c #898379",
"&X c #918574",
"*X c #948978",
"=X c #938C7A",
"-X c #9A937E",
";X c #968E84",
":X c #9B9284",
">X c #A19686",
",X c #A49A8C",
"<X c #A99D8D",
"1X c #A19393",
"2X c #A39D95",
"3X c #A6A197",
"4X c #ABA292",
"5X c #B0A599",
"6X c #BBADA1",
"7X c #B1AFA8",
/* pixels */
"[.5.e.4.w 8 O M f M ] ] j.| ' k Y [ <.#.A &.Z N 5 q ` h.Q e.7.F.",
"J.*XD.w.q.| A = r t ~ [ x.[ E E T ! E A A P C * * C g.F.D.J.*X=X",
"*Xe.{.'.9.| I  .B C [ V Z.k.^ { ^ ^ T ' ` ' q ^ i.u.^.$X).Z.} p.",
"[.z.*X-XQ.' ;.B F Z [ E 9.{ [ { ^ { ! [ [ T V H.^.;Xr.'.{.3.0.).",
"'.,X[.}.Y.] K U a f V { E T [ q.E y.E { k.E [ T 9.<XD.}.Q.q.^.q.",
"i.^.:X~.q.v.G #.i f 7 T ! E T [ q.q.u.q.9.! Y 5.3 u.e.7.J.>X4X^.",
"^.(.r.E v.,.K s - a M 7 7 V ! ! [ { [ ! E 7 E _ h < O 0 r.5.C.e.",
"i.W R +.M.<.D a $ ; M M f 7 5 V E E ! E 7 $.U.oXm.=.` T Y Y T Q ",
"( $.x $..X$.D J N Z f f N j 7 6 h q V +.b |.V.b.B. Xo.O.G ( G U ",
"J M ..X.1.H #.&.( E Z N N Z G G F U oX+.@.U V ' Y h.P 1.B O.%.K ",
"( J x x G E ( *.h.} ' ( f - N D U M.j.q #.4 0 8 w ! Y ' g g G =.",
"8 :.B a U ! q.z.h.s.} h.0.! 6 d ' N.y y i.e.}.i.{.Q.d._ ( Z D x ",
"w -.m v G [ 0.s.s.h.n.s._ A.9.w [ z.!.Q I.5.Z.g.^.{.D.8.q Y Z 5 ",
"y f p l a f 6 _ a.&.g.h.a.R C.> F.r.[.a.5.T.' a.5X:X(.r.0 h < + ",
"5 J - s & K j R H *.' &.( R C.e e.} z.z.F.,X,XS.r.(.i.t.0 H j < ",
"} ` z i D N j f Z Z ( ' } a._ > 5.Y.U.Q.3.&XQ.Q.F.W w 8 ! q h #.",
"_ L b v D D D z x G K ) Z k.8.: 3.x.R.w.8.7.8.4.! ! k w 2 ( $.0.",
"e N p p 7 f G N & D H h 4 + + 4 2 8 0 w W ! q . 6 Y ( 7.8 r.s.e ",
"W E p a f Z I p * V 5 ! 8.k.S.d._ h k 6 4 + 4 k k a.r.~.B.$X' 4.",
"r.{ F -.N 7 j P [ q Y 8.8.A.a.XXA./ } d.0 5 d.0./ 0.f.a.2X,X4.4.",
":XT } 2.a * C ` 9.8.Y h 0.R 0.d._ 0.a.j g J 0.G.Y.! +XT.`.Z.:X:X",
"3X! h $.- # c.$.} R _ 0 4 h / _ h R Z F U $.' Z [ z.2XXXP.Y.1X7X",
"r.0 H ..$ - N =.OXJ #.h 0 6 # h H N p n m.J >.' A ( Y.[ [./.T.<X",
"C.' G # # 0 q ( n.( J R #.G < h g z l c <.O.H $._.>.:.*.^.J.!.i.",
"E $.z % 7 { Q 9 Y k 0 , O 6 4 j X N ; 4 4.q.0.u V N.$.5 1 W Q y ",
"%.z S ] T.*.E.@X4Xl.a.Y.C.Q , < O ' 2 Q 8.p.).'.^.5.{ Z.].5.8 } ",
"E t q.$XT S.S.[.H.I.P.I.I.,XQ.r.< ' * Q ! e.7.4.i.}.L.'.y.0.i.' ",
"8 Z.-X+XF.:XQ.[.T.R.=Xn.`.>X(.[.! c l { [ Z.Q E 9.F.q.Z.Y I.N.B ",
"W `.6X:Xi.t.T.x.Y.x.T.&X-X/.+X%X7 L r Y e.5.5.S.Q.J.i.W l.] oXA ",
"e K.Z.F.W.i.9.F.e.e.e.~.Y.i.^.Y J B M T T 5.6.5.e.e.e.h.j.;.#XA ",
"N M T 4.%X;Xi.7.^.9.E [ V 7 A ; o o 7 E Z q q Y q ( :.A P j.$.&.",
"' o h 8 u w.w.! q 8 E | f * @ o o N N f = * = N J U = o   6 Y Y "
};
