/* XPM */
static char *player_right[] = {
/* columns rows colors chars-per-pixel */
"28 40 4 1 ",
"  c gray9",
". c #BFA787",
"X c #E8D4B2",
"o c #1E7CB8",
/* pixels */
"oooooooo            oooooooo",
"oooooooo            oooooooo",
"oooo    XXXXXXXXXXXX    oooo",
"oooo    XXXXXXXXXXXX    oooo",
"oo  XXXXXXXXXXXXXXXXXXXX  oo",
"oo  XXXXXXXXXXXXXXXXXXXX  oo",
"oo  XXXXXXXXXXXXXXXXXXXX  oo",
"oo  XXXXXXXXXXXXXXXXXXXX  oo",
"  ..XXXXXXXXXXXXXXXXXXXX..  ",
"  ..XXXXXXXXXXXXXXXXXXXX..  ",
"  XXXXXXXXXXXXXXXXXXXXXXXX  ",
"  XXXXXXXXXXXXXXXXXXXXXXXX  ",
"  XXXXXXXXXXXXXXXXXXXXXXXX  ",
"  XXXXXXXXXXXXXXXXXXXXXXXX  ",
"  ..XXXX  XXXXXXXXXXXXXX..  ",
"  ..XXXX  XXXXXXXXXXXXXX..  ",
"oo  XXXX  XXXXXXXXXXXXXX  oo",
"oo  XXXX  XXXXXXXXXXXXXX  oo",
"oo  ..XXXXXXXXXXXXXXXX..  oo",
"oo  ..XXXXXXXXXXXXXXXX..  oo",
"oooo  ..XXXXXXXXXXXX..  oooo",
"oooo  ..XXXXXXXXXXXX..  oooo",
"oo  XXXXXXXXXXXXXXXXXX..  oo",
"oo  XXXXXXXXXXXXXXXXXX..  oo",
"oo  XXXX  XXXXXXXXXX  ..  oo",
"oo  XXXX  XXXXXXXXXX  ..  oo",
"oo  XX..  XXXXXXXXXX    oooo",
"oo  XX..  XXXXXXXXXX    oooo",
"oo  ....  XXXXXXXXXX  oooooo",
"oo  ....  XXXXXXXXXX  oooooo",
"oooo    ........XXXX  oooooo",
"oooo    ........XXXX  oooooo",
"oooooo  ....    ..XX  oooooo",
"oooooo  ....    ..XX  oooooo",
"oooooooo    oo  ....  oooooo",
"oooooooo    oo  ....  oooooo",
"oooooooooooooooo    oooooooo",
"oooooooooooooooo    oooooooo",
"oooooooooooooooooooooooooooo",
"oooooooooooooooooooooooooooo"
};