/* XPM */
static char *_937938cee0a4c97818e043a33140194KtrgdUQnhtzcAwvc[] = {
/* columns rows colors chars-per-pixel */
"32 32 5 1 ",
"  c #45283C",
". c #595652",
"X c #696A6A",
"o c #847E87",
"O c #9BADB7",
/* pixels */
" oOOOOOOOOOOOOOOOOOOOOOOOOOOOOOO",
" O.XXXXXXXXXXXXXXXXXXXXXXXXXXXXO",
" ..XXXXXXXXXXXXXXXXXXXXXXXXXXXXO",
" ..XXXXXXXXXXXXXXXXXXXXXXXXXXXXO",
" ..XXXXXXXXXXXXXXXXXXXXXXXXXXXXO",
" ..XXXXXXXXXXXXXXXXXXXXXXXXXXXXO",
" ..XXXXXXXXXXXXXXXXXXXXXXXXXXXXO",
" ..XXXXXXXXXXXXXXXXXXXXXXXXXXXXO",
" .XXXXXXXXXXXXXXXXXXXXXXXXXXXXXO",
" .XXXXXXXXXXXXXXXXXXXXXXXXXXXXXO",
" .XXXXXXXXXXXXXXXXXXXXXXXXXXXXXO",
" .XXXXXXXXXXXXXXXXXXXXXXXXXXXXXO",
" .XXXXXXXXXXXXXXXXXXXXXXXXXXXXXO",
" .XXXXXXXXXXXXXXXXXXXXXXXXXXXXXO",
" .XXXXXXXXXXXXXXXXXXXXXXXXXXXXXO",
" ..XXXXXXXXXXXXXXXXXXXXXXXXXXXXO",
" ..XXXXXXXXXXXXXXXXXXXXXXXXXXXXO",
" ..XXXXXXXXXXXXXXXXXXXXXXXXXXXXO",
" ..XXXXXXXXXXXXXXXXXXXXXXXXXXXXO",
" ..XXXXXXXXXXXXXXXXXXXXXXXXXXXXO",
" ..XXXXXXXXXXXXXXXXXXXXXXXXXXXXO",
" .XXXXXXXXXXXXXXXXXXXXXXXXXXXXXO",
" .XXXXXXXXXXXXXXXXXXXXXXXXXXXXXO",
" .XXXXXXXXXXXXXXXXXXXXXXXXXXXXXO",
" .XXXXXXXXXXXXXXXXXXXXXXXXXXXXXO",
" .XXXXXXXXXXXXXXXXXXXXXXXXXXXXXO",
" .X.XXXXXXXXXXXXXXXXXXXXXXXXXXXO",
" .X.XXXXXXXXXXXXXXXXXXXXXXXXXXXO",
" .X.XXXXXXXXXXXXXXXXXXXXXXXXXXXO",
" .XXXXXXX...XXXXXXXXX..XXX.....O",
" .............................Oo",
"                                "
};
