/* XPM */
static char *NSfYEqk1739447720060[] = {
/* columns rows colors chars-per-pixel */
"32 32 207 2 ",
"   c #345A35",
".  c #395F37",
"X  c #3D563B",
"o  c #375D38",
"O  c #3B5C3B",
"+  c #2F732F",
"@  c #356535",
"#  c #376C35",
"$  c #37623A",
"%  c #3C633C",
"&  c #3E6A3D",
"*  c #3E723D",
"=  c #347032",
"-  c #42563F",
";  c #415A3E",
":  c #40663F",
">  c #406C3D",
",  c #3E5C40",
"<  c #4D4D41",
"1  c #5C4D44",
"2  c #465641",
"3  c #4C5643",
"4  c #445C42",
"5  c #4B5A46",
"6  c #4D5E49",
"7  c #565146",
"8  c #56564A",
"9  c #5B554A",
"0  c #535C4B",
"q  c #5A5C4E",
"w  c #5B5D51",
"e  c #625147",
"r  c #62554C",
"t  c #655C53",
"y  c #695E55",
"u  c #695E58",
"i  c #436343",
"p  c #486146",
"a  c #456B44",
"s  c #4A6F44",
"d  c #4C624A",
"f  c #4D6C4A",
"g  c #52634D",
"h  c #5A634E",
"j  c #536C4E",
"k  c #447343",
"l  c #4C7245",
"z  c #477844",
"x  c #4E7946",
"c  c #4F7849",
"v  c #53754C",
"b  c #54794C",
"n  c #597947",
"m  c #546351",
"M  c #5B6353",
"N  c #566B51",
"B  c #5C6A52",
"V  c #5E6658",
"C  c #5E6C59",
"Z  c #5A7254",
"A  c #577C52",
"S  c #5B7C55",
"D  c #5F745B",
"F  c #5F7B5B",
"G  c #547450",
"H  c #636254",
"J  c #6A6457",
"K  c #626B56",
"L  c #656459",
"P  c #6C645C",
"I  c #646C5C",
"U  c #6C6C5C",
"Y  c #706359",
"T  c #71695F",
"R  c #6F7057",
"E  c #657D53",
"W  c #64735D",
"Q  c #6A735C",
"!  c #647A5C",
"~  c #6E7A5D",
"^  c #747A5F",
"/  c #72725A",
"(  c #6C6C62",
")  c #736B63",
"_  c #7A6F64",
"`  c #746D68",
"'  c #786E6D",
"]  c #677760",
"[  c #6B7362",
"{  c #6C7B64",
"}  c #6F7C6A",
"|  c #647C60",
" . c #737364",
".. c #7D7467",
"X. c #747C64",
"o. c #75746A",
"O. c #7A736B",
"+. c #737D6A",
"@. c #7A7B6D",
"#. c #7A7471",
"$. c #7D7C74",
"%. c #81776C",
"&. c #837D73",
"*. c #827E7A",
"=. c #887C72",
"-. c #5C814D",
";. c #5C8356",
":. c #6E8654",
">. c #6D8D50",
",. c #64815A",
"<. c #6F865B",
"1. c #678859",
"2. c #6F8858",
"3. c #668155",
"4. c #768E57",
"5. c #7A8B55",
"6. c #76825E",
"7. c #758D5B",
"8. c #798B5D",
"9. c #7D925E",
"0. c #6B8264",
"q. c #758861",
"w. c #73816B",
"e. c #7A836C",
"r. c #778C6F",
"t. c #7D8C6B",
"y. c #798565",
"u. c #7C9264",
"i. c #7F976E",
"p. c #7C8573",
"a. c #7D8974",
"s. c #7D8479",
"d. c #7A8977",
"f. c #7E9178",
"g. c #808664",
"h. c #828B64",
"j. c #82836B",
"k. c #828C6C",
"l. c #829060",
"z. c #829867",
"x. c #85936D",
"c. c #8D926F",
"v. c #828474",
"b. c #8C8372",
"n. c #838A73",
"m. c #8B8B75",
"M. c #84837C",
"N. c #8A857B",
"B. c #858A7A",
"V. c #8B8D7D",
"C. c #908B7A",
"Z. c #859473",
"A. c #8A9374",
"S. c #84927C",
"D. c #8C927B",
"F. c #8F9B7E",
"G. c #919577",
"H. c #919D77",
"J. c #94937C",
"K. c #939B7D",
"L. c #9A9B7B",
"P. c #8AA26E",
"I. c #93A17E",
"U. c #868582",
"Y. c #8A8683",
"T. c #8C8C83",
"R. c #8E8D8A",
"E. c #878D82",
"W. c #928E84",
"Q. c #928E89",
"!. c #8D9383",
"~. c #899C80",
"^. c #8F9488",
"/. c #939483",
"(. c #9A9384",
"). c #949B83",
"_. c #9A9C83",
"`. c #94938A",
"'. c #9B958C",
"]. c #969A8B",
"[. c #9B9B8B",
"{. c #9D9B94",
"}. c #9F9E9A",
"|. c #989893",
" X c #A19C94",
".X c #A09E98",
"XX c #95A482",
"oX c #9AA385",
"OX c #9CAB84",
"+X c #9AA38B",
"@X c #9DA88B",
"#X c #9AA790",
"$X c #A2A38C",
"%X c #A5AA8E",
"&X c #A4A494",
"*X c #A9A294",
"=X c #A6AC96",
"-X c #ACAD94",
";X c #A5A29C",
":X c #AAA39C",
">X c #ACAC9C",
",X c #B2AD9D",
"<X c #ADAFA6",
"1X c #AAA5A1",
"2X c #B6AFAC",
"3X c #B1ACA5",
"4X c #B8B2A6",
/* pixels */
"=.=.` d p m & V [ e.D.D.B J [.{.F.;X1X!.@.m V. XM.T.Y.O.*. X'._.",
"m.8.@.V d % a /. X&X[.`.K B G.oXZ.S.T.N.J.g { M.o.F U K $Xz./.k.",
"m.N._ V W `.*X_.(.b.A.D.O.Z ).x.{.{.`.D.`.$.p f * o.4 v.(.D.T.W.",
"%.8.M N !._._./.D.V.k.B.[ w.].[.A.x.x.z.0.M.y 4 i X [ XXM.m.m.>.",
"j.4.g W '._.D.M.s.Y.$.N L `.).'./.N.V.M.Q ] I m 4 m O.k.W.N.m...",
"j.6.d } !.U.M.M.U.*.o.q M.~.T.'.A.T.$.o. .Z g 6 2 5 6 ^ k.@.h.l.",
"t 4 5 q p.p.e.n.X.o.j 4 ! r.V.T.Q.&. .Q T H d 0 o.{ N d > E Q U ",
"6 h J r ) [ +.@.f # @ O > A B.Z.@. .e.[ 6 w U [.*X=XA.H 2 - ; q ",
"*. X:XI 5 : l a   O 4 < g a ,.9.7.F K 4 [ *X-X-X_.J.[.].( w 8 t ",
"&X[._.].4     ; h Y.) y V , s l v V X 0 >XOX_.).E./.T.u.V.o.m I ",
"oX$XV.t.[ X I [.%X&X$X$X .: 5 4 O X N s.T.[./.W.{.R.U.$.f.C } :X",
"2XD.n.v.L o. X%XoXA._._.(.&.y 2 7 t v.u.x.Z.A.`.).!.T.B.S m E.[.",
"T.x.A.p.t o./.t.(.n.N.6.h.8.Q t 1 1 H o.$.B.x.T.S.A + s @ 4 $.p.",
"@.-.A.S 5 5 o.A ! >.g.X.X.Z i y O.P ) 6 J $.R.D & & a d 3 O P +.",
"M.@.! B O O X t P K U H 2 4 +.).&X=X+XB.O 4 p 4 ! Z.V.e.r O % k ",
"3.v g X 5 K   O   X X - g @.$X$X4X:X:X{.+.4 4 ` '.*X/.M.M 8   O ",
"6 $ O I @X&X{.d.o.$ o q .X%X,X XH.K.).oX{.M.Z G B.D.n.0.& r 0 X ",
"0 5 U.#X&X[.:X<X`.( O I +XoX*XXX).}.}.;XD.V.I i F e.x * q ; M Y ",
"P : Z.oXM.!.Z./.|.Y.e $.B.S.^.E.A.}.Q./.5.e.! O O n v @ $ ! [.T.",
"#.H +.!.Y.e.u.B.M.o.4 8 v { +.d.`.d.Y.V.q.c O 4 -     % i.OX&X|.",
"e.X.y  .A.n.n.B.~ i 2 q q q h g D Q { >.b @ d /.K.B  .&X:X&X]./.",
"@. .M g j x.o.[ a , 8 O.j.B.@.f O 4 i 6 i /.I.Z.V.o.V ).XX`./.D.",
"P p q t 8 4 N & 2 5 Q.>XOXoXD.M.O.g 4 I K.K.K.k.p.* a .X].a.Z.t.",
"q m ) y.@.P O   ; [ {.*X3X:X[.:XK.k.w 0  .n.,.X.! @ { Q.U.d.$.v.",
"g V.[._.[.D.+.$.7 P N.C.(.K.`.`.[._./.( H y b x # % '.U.E.a.X.j ",
"v.P.I.-X,X{.~.^.w 7 U 4.A.J.c.(.'.).[.!.M 0 2 . i T.E.k.k.( p t ",
"oX-X&X:XQ.{.).S.B.F 9 U ^ %.N..._ =.N.v.v.K m f +.p.k.U.@.4 w n.",
"_.L.K.[.{.`.`.D.e.T.( 0 7 P ) U R ..b.j.N.M.g $ :.5.6.m 2 q 4 E ",
"N S D.[.].].D.V.M.U.[ I p X X ; 3 M ..Q ../ B 6 g n d B  .P O i ",
"I a ;.1./.`.M.T.M.*.*.( ) w 5 2 6 5 X 5 j = & p ' Q.Y.T.Y.` 9 g ",
"y.W # z w.M.`.Y.@.:.<.H 8 5 w #.D.D.O.u q 8 m a B.{.T.s.( r @.N.",
"j.y.t P Z k | O.` ( L q 6 0 O..XZ.u.{.Z.2.a W K./.'.U.o.r P Y.h."
};
