/* XPM */
static char *VGYKtJd1739448182577[] = {
/* columns rows colors chars-per-pixel */
"32 32 133 2 ",
"   c #1F2221",
".  c #1A363A",
"X  c #222423",
"o  c #272A28",
"O  c #2A2C2B",
"+  c #2D302F",
"@  c #313533",
"#  c #353936",
"$  c #363A38",
"%  c #393D3B",
"&  c #3D413E",
"*  c #3F4341",
"=  c #2B4951",
"-  c #33595D",
";  c #2D5D69",
":  c #30626C",
">  c #39666C",
",  c #376C76",
"<  c #396D76",
"1  c #39727F",
"2  c #414542",
"3  c #444946",
"4  c #464C48",
"5  c #4A4F4B",
"6  c #4B524D",
"7  c #4E5551",
"8  c #515753",
"9  c #535A56",
"0  c #555D59",
"q  c #585E5A",
"w  c #56615A",
"e  c #59635C",
"r  c #5C6560",
"t  c #5E6963",
"y  c #616662",
"u  c #626A65",
"i  c #646F69",
"p  c #686E6B",
"a  c #667067",
"s  c #65726D",
"d  c #6A736D",
"f  c #677571",
"g  c #6B7672",
"h  c #6D7973",
"j  c #717771",
"k  c #717C78",
"l  c #768077",
"z  c #77827A",
"x  c #79847C",
"c  c #7B887F",
"v  c #387786",
"b  c #3E8796",
"n  c #3B8A97",
"m  c #3C8D9A",
"M  c #3A9AA3",
"N  c #44848E",
"B  c #408994",
"V  c #41949E",
"C  c #7D8680",
"Z  c #7D8A84",
"A  c #4397A0",
"S  c #439AA3",
"D  c #43AFB7",
"F  c #48AEBA",
"G  c #47B0BE",
"H  c #47B8C3",
"J  c #49C2CD",
"K  c #49C6D2",
"L  c #4DC9D5",
"P  c #4FCFDC",
"I  c #67C6DA",
"U  c #50D3E1",
"Y  c #52DDE8",
"T  c #56E1E9",
"R  c #5BE3EA",
"E  c #5DE4F0",
"W  c #61EAF3",
"Q  c #6EEEF4",
"!  c #818E88",
"~  c #849186",
"^  c #82938A",
"/  c #89948B",
"(  c #87988E",
")  c #89998F",
"_  c #8D9D94",
"`  c #909D92",
"'  c #92A197",
"]  c #92A49B",
"[  c #94A89E",
"{  c #96A6A1",
"}  c #99A7A2",
"|  c #97ABA2",
" . c #9AACA5",
".. c #9CAFA8",
"X. c #9FB1A7",
"o. c #9EB0AA",
"O. c #A2B4AA",
"+. c #A6B9AE",
"@. c #A9BAAF",
"#. c #A7B9B0",
"$. c #AABCB3",
"%. c #ACBDB8",
"&. c #ACC0B6",
"*. c #AEC1BA",
"=. c #B1C3BC",
"-. c #B1C3BD",
";. c #B4C3BF",
":. c #B2C4BE",
">. c #B6C6C0",
",. c #B5C9C2",
"<. c #B6CBC3",
"1. c #B7CBC5",
"2. c #B7CCC4",
"3. c #B9CEC5",
"4. c #BFCEC9",
"5. c #BED2C9",
"6. c #86F1F9",
"7. c #92F3F7",
"8. c #99F4F9",
"9. c #A1F4F9",
"0. c #A8F5F9",
"q. c #BCF6FB",
"w. c #C3D4CD",
"e. c #C3D5CE",
"r. c #C8DBD2",
"t. c #CCD9D5",
"y. c #C4F9FB",
"u. c #C6F9FB",
"i. c #CDFBFB",
"p. c #D5FBFB",
"a. c #D8F9FB",
"s. c #DCFBFB",
"d. c white",
/* pixels */
"_ d 8 ]  . .#.#.#.) u %.} ! ( d 3 i -. .#.! $ l ( Z 8 r ! { ..O.",
"..( r o.o.%.O.[ *.i # j [ [ x 2 e i @._ ..#.i % e 4 4 _ ;.#.] @.",
"o.z 6 ' X.O.X.{ ..& * $ z j & 6 0 *.O.$.+.Z _ ) # 0 ~ ] ( #.#.,.",
"d d 9 6 d [ e r 3 @ X   X & 6 e :.$.%.#.( ( _ O.O 6 O._ _ _ O.k ",
"y ' @.j 3 5 w ; ; ; ; ; w o & e *.:.e.$.O...X.C X $ r h / ! e 2 ",
"^ ..o.2.7 + ; d.d.d.a.Q ; s # z +.h i r e 6 9 ] @ 6 4 + @ 2 e 9 ",
"' ' ..>.1.3 ; a.d.a.a.u.u.; e 3 6 6 ; ; ; ; 0 r # s 1.3.$...x l ",
"( _ _ ] e.s ; L Q a.Q Q Q Q ; 7 6 ; d.u.d.Q ; % @ +.$.O.,.#.] _ ",
"( ' ..} O.7 ; N F a.Q L Y 8.W ; @ ; a.a.d.a.A . 9 e e w 8 O.X._ ",
"] ..` 2 3 9 ; N N T Q Y 8.R K V ; ; E d.Q A L ; ; ; ; ; w s 3.o.",
"..C ) 2 5 3 9 . - N W s.W K F F V . 7.Q F = ; Q u.u.d.Q . g t.O.",
"( c y q e 3 % @ . - T W K ; ; ; ; A . ; . ; u.u.a.d.d.Q . w $.[ ",
"z e 9 x h # @ 2 % . - 6.; Q Q u.L ; = . ; Q Q Q a.a.Q L . w ' k ",
"8 9 Z ] #.u X X o o . ; A 7.d.E E ; = ; W 8.Y L Q a.F N . 3 j p ",
"c _ ]  ...*.X.3 w w w ; L A Q d.E B ; V K R 8.Y Q T N N . 6 @ % ",
"r _ ..{ _ 4.x 3 i ; . M < = = A 7.: V F F K W s.W N - . g x -.h ",
"h y _ O.:.O.& w ; n . m > = . = > A K F D F K W T - . h g ,. .( ",
"O.8 x $.-.6 o ; J J v . = > = . = = J D D D T 6.- . k 4.3.[ ( _ ",
"_ e 2 x r $ ; J i.i.J v = = . = = > b 1 J J T - . k 5.r.o.k j ( ",
"C 3 % @ # 6 ; 9.u.0.i.J v = v P J i.J ; B T = . ; . u ,.k d _ ! ",
"q | 9 e e ; v a.d.T T T S = S S u.9.9.Q B = Q p.q.Q . r ) x / y ",
"! ~ _ z 9 ; v T d.u.J V > . v i.i.9.9.s.H H R G d.q.. & x i 2 $ ",
".._ ( ,.k s . v v J u.v . . . 7.a.u.7.s.S , T W G v . @ # O 3 _ ",
"' c c X.,.s h . . v v V . 6 . v 7.p.u.d.p., H K v . o   # #.e.>.",
"Z l ( c } e.e w w . . . h s g . v U d.u.L S I v . w $ $ O.>.] [ ",
"c k ! x z X.]  .6 o g k f e r 0 . v v v . v v . 9 t %.7 @ j d l ",
"_ ] ] Z Z ] O.6 & t k h #.&.O.t 6 . . . i . . e u -.+.$.a 6 X.] ",
"#. .{ ( c O.8 e e t *.3. .( } #.e i s g e e 0 2 [ ,.+._ ] i k 2.",
"_ '  .! ( e 7 g X.4 O.( ] _ ( } _ 6 6 8 X.] ( ( O.....+.^ z 6 ^ ",
"x ^ ( ( j s X.$.$.g C ] } { [ ..@ * j x ( l 9 z ..o.....i d 6 7 ",
"@ % 6 j i O.' ( ..#.x ( '  .} ~ e 6 9 8 i 3 r l Z x c r y 6 6 9 ",
"q % 8 * ^  . .{ ( _ y ^ ] _ z y 2 2 % % & 6 r ( _ ( y 6 6 * e d "
};
